<?xml version="1.0" encoding="UTF-8" standalone="no"?><!DOCTYPE svg PUBLIC "-//W3C//DTD SVG 1.1//EN" "http://www.w3.org/Graphics/SVG/1.1/DTD/svg11.dtd"><svg width="100%" height="100%" viewBox="0 0 1455 482" version="1.1" xmlns="http://www.w3.org/2000/svg" xmlns:xlink="http://www.w3.org/1999/xlink" xml:space="preserve" xmlns:serif="http://www.serif.com/" style="fill-rule:evenodd;clip-rule:evenodd;stroke-linejoin:round;stroke-miterlimit:2;"><g><g><path d="M139.084,350c42.252,0 48.416,-118.085 48.416,-161.915c0,-47.054 -10.531,-188.085 -42.637,-188.085c-5.394,0 -9.76,4.125 -9.76,10.958c-0,2.191 30.051,67.55 30.051,162.559c0,18.306 -3.596,147.735 -27.354,147.735c-34.675,0 -50.857,-139.097 -54.067,-174.42c-1.413,-3.996 -6.165,-7.219 -10.916,-7.219c-5.266,0 -10.403,4.125 -10.403,15.728c0,0.258 0.899,10.957 0.899,20.884c0,36.224 -4.88,122.854 -15.924,122.854c-16.053,0 -27.612,-83.536 -27.612,-151.602c0,-31.842 2.44,-60.332 8.22,-75.285c-0,0.644 7.962,1.546 9.246,1.546c5.137,0 7.449,-4.511 7.449,-10.184c-0,-10.184 -7.192,-24.364 -18.108,-24.364c-18.108,-0 -26.584,49.631 -26.584,107.642c0,81.989 16.824,180.866 46.49,180.866c25.428,-0 30.436,-67.937 31.207,-79.669c4.752,23.205 28.382,101.971 61.387,101.971Z" style="fill:#1d200d;fill-rule:nonzero;"/><path d="M221.229,228.131c-0.257,-0.924 -0.513,-2.112 -0.513,-3.431c-0,-5.41 3.849,-13.986 9.752,-13.986c1.925,-0 3.336,1.847 3.336,3.298c0,3.695 -11.677,13.591 -12.575,14.119Zm36.956,42.881c17.196,0 53.51,-10.423 53.51,-31.534c0,-2.111 -1.924,-4.618 -4.747,-4.618c-2.31,-0 -5.647,1.187 -9.111,4.618c-7.186,6.993 -21.815,15.041 -41.32,15.041c-20.146,0 -27.589,-11.611 -27.589,-11.611c0,0 22.2,-17.284 22.2,-32.194c-0,-12.667 -9.111,-18.868 -18.607,-18.868c-17.451,-0 -27.076,19.923 -27.076,36.153c0,20.319 15.784,43.013 52.74,43.013Z" style="fill:#1d200d;fill-rule:nonzero;"/><path d="M326.252,273.233c-2.371,0 -2.767,-1.291 -2.767,-2.841c0,-2.067 3.557,-4.004 7.641,-4.004c0,1.679 -1.581,6.845 -4.874,6.845Zm-5.006,19.503c20.551,-0 25.03,-26.864 25.03,-26.864c16.995,-0 38.995,-13.82 38.995,-27.381c0,-2.325 -2.107,-4.521 -4.874,-4.521c-9.485,0 -16.072,16.661 -35.175,16.661l-3.952,-0.129c-8.826,-8.783 -16.994,-8.266 -22.132,-14.465c-0,-0 13.437,-17.695 13.437,-29.319c0,-5.682 -3.161,-9.815 -12.515,-9.815c-11.857,-0 -24.372,18.727 -24.372,32.03c0,10.203 13.701,23.506 24.372,26.348c-8.563,2.454 -15.545,13.561 -15.545,22.989c-0,7.75 4.611,14.466 16.731,14.466Z" style="fill:#1d200d;fill-rule:nonzero;"/><path d="M411.085,272.549c19.967,-0 46.807,-14.499 46.936,-33.177c0,-1.306 -0.259,-4.18 -5.186,-4.18c-11.669,0 -18.412,22.466 -40.713,22.466c-20.486,0 -23.079,-14.106 -23.079,-14.106c18.671,-27.43 25.672,-66.353 25.672,-102.142c9.076,-0.523 14.003,-0.784 22.042,-0.784c27.229,-0 48.752,2.612 61.458,2.612c4.928,0 12.707,-1.306 12.707,-7.837c0,-8.098 -22.561,-9.665 -39.416,-9.665c-16.337,-0 -57.439,1.828 -58.476,1.828c-0,0 -1.038,-21.682 -15.949,-21.682c-17.892,-0 -22.82,24.033 -22.82,24.033c0,0 -94.567,6.322 -94.567,15.465c0,2.351 0.519,5.486 1.556,9.143c1.297,0.261 48.668,-8.934 88.862,-10.24c-2.333,12.278 -5.705,33.438 -5.705,54.859c0,36.573 9.725,73.407 46.678,73.407Zm-19.709,-143.94c0,0 1.994,-7.665 4.457,-7.665c1.038,-0 1.508,7.143 1.508,7.143l-5.965,0.522Zm-8.168,94.958c-2.464,-10.188 -2.982,-15.282 -2.982,-25.731c-0,-28.866 8.298,-54.859 8.298,-54.859l10.243,-0.131l0.13,4.18c-0,18.939 -7.261,59.3 -15.689,76.541Z" style="fill:#1d200d;fill-rule:nonzero;"/><path d="M483.305,275.368c35.008,0 78.054,-18.948 78.054,-39.176c0,-2.56 -2.333,-4.481 -4.797,-4.481c-2.463,0 -5.575,1.665 -9.206,4.481c-17.763,13.699 -41.75,22.533 -63.792,22.533c-17.893,-0 -24.117,-4.097 -24.117,-9.474c0,-9.346 19.709,-22.405 29.044,-22.405c1.686,0.768 3.371,1.153 4.927,1.153c6.224,-0 10.632,-5.762 10.632,-11.267c0,-5.121 -3.89,-10.114 -14.003,-10.114c-18.152,0 -53.679,27.27 -53.679,47.498c0,11.906 12.188,21.252 46.937,21.252Z" style="fill:#1d200d;fill-rule:nonzero;"/><path d="M565.68,263.473c-5.365,0 -7.791,-2.902 -7.791,-6.86c-0,-8.575 6.369,-20.839 14.578,-25.078c6.157,-3.18 20.524,-2.12 10.712,21.516c-3.704,5.541 -9.069,10.422 -17.499,10.422Zm1.278,13.985c11.112,-0 23.981,-7.767 30.138,-20.486c4.104,4.24 15.579,5.702 22.576,6.359c22.576,2.12 34.89,-4.239 41.679,-23.868c0.774,-2.236 -3.808,-5.587 -4.854,-4.618c-10.145,9.409 -16.349,15.7 -34.998,15.7c-7.92,-0 -13.284,-3.035 -18.138,-6.465c0.766,-2.77 0.8,-7.263 -0.108,-10.425c-3.31,-11.526 -6.157,-14.839 -14.367,-16.958c-39.573,-10.219 -46.197,27.383 -46.197,40.312c-0,11.478 9.579,20.449 24.269,20.449Z" style="fill:#1d200d;fill-rule:nonzero;"/><path d="M1278.55,267.366c-5.446,0 -7.909,-2.902 -7.909,-6.86c-0,-8.575 6.465,-20.839 14.798,-25.079c6.25,-3.179 20.834,-2.119 10.874,21.517c-3.76,5.541 -9.206,10.422 -17.763,10.422Zm1.297,13.984c11.28,0 24.342,-7.767 30.592,-20.485c4.167,4.239 15.815,5.702 22.917,6.359c22.917,2.12 19.772,-2.54 32.272,-10.874c1.972,-1.314 4.396,-13.895 0,-16.666c-5.11,-3.222 -11.487,14.753 -30.417,14.753c-8.039,0 -13.485,-3.034 -18.412,-6.464c0.778,-2.771 0.812,-7.264 -0.11,-10.426c-3.36,-11.526 -6.25,-14.838 -14.583,-16.958c-40.17,-10.218 -46.895,27.384 -46.895,40.313c0,11.477 9.725,20.448 24.636,20.448Z" style="fill:#1d200d;fill-rule:nonzero;"/><path d="M688.851,268.382c19.706,-0 46.194,-14.136 46.322,-32.347c0,-1.274 -0.256,-4.076 -5.118,-4.076c-11.517,0 -18.171,21.905 -40.18,21.905c-20.218,-0 -22.777,-13.754 -22.777,-13.754c18.426,-26.744 25.336,-64.694 25.336,-99.589c8.957,-0.509 13.82,-0.764 21.754,-0.764c26.871,0 49.245,-0.774 61.785,-0.774c4.863,0 11.408,2.048 11.408,-4.32c0,-7.896 -21.502,-5.911 -38.137,-5.911c-16.123,0 -57.45,-1.73 -58.473,-1.73c-0,0 -1.024,-21.14 -15.74,-21.14c-17.658,-0 -22.521,23.433 -22.521,23.433l-55.791,4.839c-2.303,-5.858 -4.606,-8.405 -8.957,-8.405c-5.63,-0 -14.588,4.075 -31.222,9.424c-12.797,4.075 -21.242,3.82 -21.242,12.735c-0,2.292 0.512,5.349 1.536,8.914c1.279,0.255 2.815,0.51 4.606,0.51c17.915,-0 67.308,-12.735 106.976,-14.009c-2.304,11.971 -5.631,32.602 -5.631,53.488c0,35.658 9.597,71.571 46.066,71.571Zm-19.45,-140.341c0,-0 1.792,-4.203 4.223,-4.203c1.024,0 1.663,3.694 1.663,3.694l-5.886,0.509Zm-8.061,92.584c-2.432,-9.933 -2.943,-14.9 -2.943,-25.088c-0,-28.145 8.189,-53.487 8.189,-53.487l10.109,-0.128l0.128,4.076c-0,18.465 -7.166,57.817 -15.483,74.627Z" style="fill:#1d200d;fill-rule:nonzero;"/><path d="M765.091,272.549c20.15,-0 32.842,-10.45 32.842,-16.85c0,-1.306 -0.261,-4.18 -5.233,-4.18c-3.272,0 -10.73,6.139 -26.562,6.139c-20.673,0 -23.29,-14.106 -23.29,-14.106c18.841,-27.43 25.907,-66.353 25.907,-102.142c2.29,-0.131 4.318,-0.245 6.199,-0.343c5.642,-0.294 9.96,-0.441 16.045,-0.441c27.477,-0 49.487,1.305 62.31,1.305c4.972,-0 10.512,0.235 10.512,-6.296c-0,-8.098 -20.747,-9.899 -37.756,-9.899c-16.487,-0 -57.964,1.828 -59.011,1.828c0,0 -1.047,-21.682 -16.094,-21.682c-18.056,-0 -23.028,24.033 -23.028,24.033c-0,0 -3.334,9.917 -4.187,14.368c-2.356,12.278 -5.757,33.438 -5.757,54.859c-0,36.573 9.813,73.407 47.103,73.407Zm-21.106,-143.21c0,-0 2.103,-8.395 6.308,-8.395c4.204,-0 2.102,8.395 2.102,8.395l-8.41,-0Zm-7.025,94.228c-2.486,-10.188 -3.01,-15.282 -3.01,-25.731c0,-28.866 8.375,-54.859 8.375,-54.859l10.336,-0.131l0.131,4.18c0,18.939 -7.327,59.3 -15.832,76.541Z" style="fill:#1d200d;fill-rule:nonzero;"/><path d="M914.184,347.582c-21.533,0 -29.624,-7.005 -29.624,-15.567c-0,-22.054 23.098,-28.67 23.098,-28.67c1.436,-1.168 2.872,-1.557 4.568,-1.557c1.305,0 2.871,0.26 4.437,0.26c3.002,-0 5.742,-0.649 9.266,-4.411c5.35,-5.968 1.044,-7.654 7.569,-11.027c13.442,-6.746 27.666,-10.119 42.413,-10.119c11.876,0 24.013,2.206 37.454,6.097c0,0 -36.54,64.994 -99.181,64.994Zm14.485,-80.431c-0.783,-21.535 -10.179,-116.237 -10.179,-164.885c0,-8.303 -3.784,-14.919 -11.745,-15.179c-7.961,0 -10.571,15.698 -10.571,38.66c0,42.291 9.266,106.507 9.266,122.723c-8.744,-9.989 -20.358,-83.805 -20.88,-97.297c-0.261,-3.502 -0.261,-7.005 -0.261,-10.637c-0,-43.589 13.18,-100.54 67.469,-100.54c46.068,-0 83.913,77.578 83.913,156.582c0,36.195 -15.008,69.016 -15.008,69.016c-16.834,-3.373 -31.19,-6.097 -44.37,-6.097c-13.964,-0 -28.189,2.335 -47.634,7.654Zm-17.095,103.783c79.606,-0 120.453,-83.546 120.453,-83.546c0,0 10.832,2.076 16.443,2.076c18.662,0 43.197,-11.546 43.197,-27.632c-0,-2.724 -2.219,-4.541 -4.829,-4.541c-3.915,0 -5.873,1.817 -9.005,4.541c-5.481,5.189 -17.487,10.378 -27.797,10.378c-3.523,0 -6.786,-0.519 -9.526,-1.946c-0,0 15.008,-35.545 15.008,-76.669c-0,-80.043 -41.631,-174.745 -111.449,-174.745c-61.858,0 -80.651,70.313 -80.651,122.075c0,3.762 0.131,7.524 0.261,11.156c2.088,37.103 13.442,98.724 31.19,131.934c0,0 -34.452,16.087 -34.452,49.557c-0,20.108 17.095,37.362 51.157,37.362Z" style="fill:#1d200d;fill-rule:nonzero;"/><path d="M1123.7,460.007c-8.589,-0 -16.12,-7.418 -16.12,-23.035c-0,-74.311 40.301,-116.086 40.301,-116.086c0,-0 7.532,34.227 7.532,58.954c-0,24.076 -7.4,80.167 -31.713,80.167Zm1.982,21.343c34.752,0 47.173,-70.537 47.173,-105.024c-0,-34.878 -8.325,-70.537 -8.325,-70.537c8.192,-9.37 16.253,-17.309 29.202,-26.028c7.532,-5.076 10.439,-13.014 10.439,-16.919c-0,-1.431 -0.864,-4.408 -4.167,-4.408c-2.775,-0 -4.766,5.6 -8.333,8.333c-8.853,6.897 -20.402,11.692 -31.634,22.494c0,0 -11.363,-62.077 -22.991,-62.077c-19.688,-0 -10.967,67.543 -30.788,67.543c-10.703,-2.863 -2.642,-38.522 -19.423,-38.522c-7.004,0 -7.664,10.021 -7.664,16.788c-0,19.522 14.138,41.516 26.427,41.516c28.145,-0 28.805,-52.708 28.805,-52.708l8.853,40.865c0,-0 -51.665,45.549 -51.665,134.436c0,23.295 11.76,44.248 34.091,44.248Z" style="fill:#1d200d;fill-rule:nonzero;"/><path d="M1213.41,270.081c-2.334,-0 -2.723,-1.292 -2.723,-2.842c0,-2.066 3.501,-4.003 7.521,-4.003c-0,1.679 -1.556,6.845 -4.798,6.845Zm-4.927,19.502c20.227,0 24.635,-26.864 24.635,-26.864c16.726,0 38.379,-13.82 38.379,-27.381c0,-2.325 -2.074,-4.52 -4.797,-4.52c-9.335,-0 -15.818,16.661 -34.619,16.661l-3.89,-0.129c-8.687,-8.783 -16.726,-8.266 -21.782,-14.466c-0,0 13.225,-17.694 13.225,-29.318c-0,-5.683 -3.112,-9.816 -12.318,-9.816c-11.669,-0 -23.987,18.728 -23.987,32.031c0,10.203 13.485,23.506 23.987,26.347c-8.428,2.454 -15.3,13.562 -15.3,22.99c0,7.749 4.539,14.465 16.467,14.465Z" style="fill:#1d200d;fill-rule:nonzero;"/><path d="M1371.7,273.017c14.132,-0 20.875,-42.806 30.729,-42.806c6.612,0 13.873,34.322 36.175,34.322c14.132,-0 15.559,-9.127 15.559,-13.369c-0,-2.957 -1.945,-5.27 -4.798,-5.27c-2.723,-0 -2.334,2.313 -8.687,2.313c-10.632,0 -17.374,-35.607 -33.841,-35.607c-22.431,0 -29.173,40.364 -32.415,40.364c-1.556,-0 -1.945,-1.157 -1.945,-3.085c0,-2.571 0.778,-6.556 0.778,-10.541c0,-3.342 -0.518,-6.813 -2.852,-9.384c-2.075,-2.185 -4.019,-3.214 -5.705,-3.214c-7.131,0 -10.762,16.069 -10.762,21.982c0,12.726 4.798,24.295 17.764,24.295Z" style="fill:#1d200d;fill-rule:nonzero;"/></g></g></svg>